<svg width="420" height="112" viewBox="0 0 420 112" fill="none" xmlns="http://www.w3.org/2000/svg" role="img" aria-labelledby="bitwizeTitle bitwizeDesc">
  <title id="bitwizeTitle">Bitwize Digital Platform</title>
  <desc id="bitwizeDesc">Logo Bitwize Digital Platform dengan simbol B dan koneksi digital.</desc>
  <rect x="4" y="4" width="104" height="104" rx="28" fill="#123A62"/>
  <path d="M39 28H65.5C77.65 28 85.5 35.12 85.5 45.36C85.5 51.9 82.28 56.87 76.9 59.56C83.94 61.88 88.1 67.46 88.1 75.18C88.1 86.5 79.48 94 66.56 94H39V28ZM63.5 54.92C69.82 54.92 73.56 51.86 73.56 46.58C73.56 41.3 69.82 38.22 63.5 38.22H51.1V54.92H63.5ZM65.46 83.78C72.42 83.78 76.28 80.5 76.28 74.62C76.28 68.78 72.42 65.46 65.46 65.46H51.1V83.78H65.46Z" fill="white"/>
  <path d="M29 31.5C29 27.91 31.91 25 35.5 25H43V37H35.5C31.91 37 29 34.09 29 30.5V31.5Z" fill="#F8BD24"/>
  <path d="M29 55.5C29 51.91 31.91 49 35.5 49H43V61H35.5C31.91 61 29 58.09 29 54.5V55.5Z" fill="#F8BD24"/>
  <path d="M29 79.5C29 75.91 31.91 73 35.5 73H43V85H35.5C31.91 85 29 82.09 29 78.5V79.5Z" fill="#F8BD24"/>
  <circle cx="92" cy="25" r="7" fill="#F8BD24"/>
  <circle cx="92" cy="56" r="7" fill="#F8BD24"/>
  <circle cx="92" cy="87" r="7" fill="#F8BD24"/>
  <path d="M85 25H99" stroke="#F8BD24" stroke-width="4" stroke-linecap="round"/>
  <path d="M85 56H99" stroke="#F8BD24" stroke-width="4" stroke-linecap="round"/>
  <path d="M85 87H99" stroke="#F8BD24" stroke-width="4" stroke-linecap="round"/>
  <path d="M136 36H150.65C162.2 36 169.38 42.23 169.38 52.23C169.38 58.3 166.42 62.95 161.2 65.27C167.9 67.42 171.85 72.6 171.85 79.77C171.85 90.4 164.02 97 151.92 97H136V36ZM149.95 61.18C157.02 61.18 161.28 57.77 161.28 52.12C161.28 46.47 157.02 43.05 149.95 43.05H144.05V61.18H149.95ZM151.48 89.92C159.25 89.92 163.62 86.2 163.62 79.68C163.62 73.25 159.25 69.52 151.48 69.52H144.05V89.92H151.48Z" fill="#123A62"/>
  <path d="M181.15 49.65H188.85V97H181.15V49.65ZM180.22 36H189.75V44.48H180.22V36Z" fill="#123A62"/>
  <path d="M205.2 57.28H196.65V49.65H205.2V37.55H212.9V49.65H226.48V57.28H212.9V81.42C212.9 86.85 215.55 89.55 220.82 89.55C222.58 89.55 224.62 89.22 226.85 88.58V96.08C224.38 96.98 221.82 97.43 219.15 97.43C210.4 97.43 205.2 92.17 205.2 82.85V57.28Z" fill="#123A62"/>
  <path d="M230.18 49.65H238.05L247.85 85.4L258.7 49.65H265.98L276.82 85.4L286.62 49.65H294.5L280.2 97H273.85L262.35 60.8L250.85 97H244.48L230.18 49.65Z" fill="#123A62"/>
  <path d="M302.2 49.65H309.9V97H302.2V49.65ZM301.28 36H310.8V44.48H301.28V36Z" fill="#123A62"/>
  <path d="M319.02 91.05L345.05 56.92H320.05V49.65H354.72V55.6L328.68 89.73H355.12V97H319.02V91.05Z" fill="#123A62"/>
  <path d="M384.35 97.98C370.82 97.98 361.82 88.28 361.82 73.45C361.82 59.1 370.62 48.7 383.65 48.7C396.38 48.7 404.45 58.07 404.45 72.2C404.45 73.5 404.38 74.92 404.25 76.42H369.72C370.65 85.72 376.28 90.82 384.55 90.82C390.42 90.82 394.98 88.28 398.12 83.28L403.98 87.35C399.45 94.28 392.95 97.98 384.35 97.98ZM396.58 69.82C395.98 61.52 391.12 55.82 383.55 55.82C376.08 55.82 370.78 61.22 369.85 69.82H396.58Z" fill="#123A62"/>
  <path d="M138 20H214" stroke="#F8BD24" stroke-width="5" stroke-linecap="round"/>
  <path d="M138 108H312" stroke="#F8BD24" stroke-width="5" stroke-linecap="round"/>
  <text x="137" y="28" fill="#526577" font-family="Nunito Sans, Arial, sans-serif" font-size="13" font-weight="800" letter-spacing="2.2">DIGITAL PLATFORM</text>
</svg>
